<svg width="500" height="500" viewBox="0 0 500 500" fill="none" xmlns="http://www.w3.org/2000/svg">
<path fill-rule="evenodd" clip-rule="evenodd" d="M140.877 45.4715C144.691 43.1638 148.543 40.9857 152.432 38.9375C138.171 21.7498 116.421 11.7218 93.4031 11.7218C51.8693 11.7218 18.1993 43.7527 18.1993 83.2647C18.1993 107.158 30.7372 129.473 51.6193 142.748C55.641 134.894 60.1592 127.122 65.1738 119.434C85.4017 88.42 110.636 63.7659 140.877 45.4715ZM437.766 119.434C442.76 127.091 447.262 134.831 451.272 142.653C472.068 129.364 484.542 107.097 484.542 83.2647C484.542 43.7527 450.871 11.7218 409.34 11.7218C386.356 11.7218 364.634 21.72 350.371 38.8643C354.307 40.9338 358.205 43.1362 362.064 45.4715C392.305 63.7659 417.539 88.42 437.766 119.434ZM106.932 225.358C70.3025 173.569 150.888 120.055 189.349 145.949C205.473 158.231 206.543 170.087 201.559 183.636C196.573 196.848 181.974 201.928 167.73 211.754C154.812 220.662 161.677 235.127 148.146 241.562C138.316 246.237 116.089 238.303 106.932 225.358ZM394.85 225.358C431.479 173.569 350.893 120.055 312.431 145.949C296.306 158.231 295.238 170.087 300.222 183.636C305.208 196.848 319.808 201.928 334.05 211.754C346.969 220.662 340.104 235.127 353.634 241.562C363.464 246.237 385.691 238.303 394.85 225.358ZM157.525 187.256C149.127 175.529 167.601 163.409 176.419 169.274C187.336 177.093 165.922 198.985 157.525 187.256ZM344.132 187.256C352.53 175.529 334.056 163.409 325.238 169.274C314.322 177.093 335.736 198.985 344.132 187.256ZM224.271 222.771C217.206 225.462 214.184 233.41 217.803 239.781C221.59 246.444 227.054 252.112 233.707 256.277L236.662 258.127C238.938 259.552 241.393 260.6 243.93 261.273V272.343C241.853 274.96 239.285 277.02 236.225 278.525C232.984 280.118 229.522 280.915 225.841 280.915C222.158 280.915 218.696 280.118 215.455 278.525C212.342 276.995 209.738 274.889 207.642 272.207C206.305 270.426 204.146 269.368 201.847 269.368C197.913 269.368 194.725 272.402 194.725 276.145C194.725 277.634 195.241 279.082 196.192 280.263C199.6 284.634 203.841 288.067 208.917 290.562C214.209 293.165 219.85 294.466 225.841 294.466C231.832 294.466 237.473 293.165 242.765 290.562C245.501 289.217 247.994 287.599 250.245 285.709C252.497 287.599 254.991 289.217 257.727 290.562C263.019 293.165 268.66 294.466 274.651 294.466C280.643 294.466 286.285 293.165 291.577 290.562C296.651 288.067 300.893 284.634 304.302 280.263C305.252 279.082 305.768 277.634 305.768 276.145C305.768 272.402 302.579 269.368 298.647 269.368C296.344 269.368 294.187 270.426 292.848 272.207C290.754 274.889 288.15 276.995 285.037 278.525C281.796 280.118 278.334 280.915 274.651 280.915C270.97 280.915 267.508 280.118 264.267 278.525C261.949 277.387 259.915 275.929 258.163 274.151C258.171 274.017 258.173 273.88 258.173 273.742C258.173 273.706 258.173 273.668 258.173 273.63V261.172C260.579 260.496 262.906 259.482 265.069 258.127L268.024 256.277C274.677 252.112 280.141 246.444 283.928 239.781C287.547 233.41 284.525 225.462 277.46 222.771L273.195 221.149C258.86 215.691 242.871 215.691 228.536 221.149L224.271 222.771ZM452.433 298.18C422.72 344.22 368.356 371.359 289.34 379.594C324.766 415.184 342.479 451.672 342.479 489.059C342.479 492.993 370.606 492.993 389.631 492.993H479.801C480.012 492.993 480.241 492.995 480.48 492.997C485.873 493.029 498 493.107 498 478.041C498 462.301 487.245 319.859 456.638 300.185C455.382 299.377 453.98 298.708 452.433 298.18ZM208.54 379.716C129.108 371.652 74.4339 344.603 44.5176 298.569C43.3799 299.025 42.3281 299.564 41.3621 300.185C10.7541 319.859 0 462.301 0 478.041C0 493.107 12.1279 493.029 17.5189 492.997C17.7598 492.995 17.9871 492.993 18.1993 492.993H108.369C127.395 492.993 155.522 492.993 155.522 489.059C155.522 451.714 173.195 415.266 208.54 379.716Z" fill="black"/>
<path fill-rule="evenodd" clip-rule="evenodd" d="M249.348 7.00129C289.312 7.09033 326.333 17.457 360.41 38.1014C390.919 56.583 416.376 81.4891 436.784 112.82C455.937 142.229 467.912 172.839 472.707 204.652C477.658 237.504 474.014 265.733 461.773 289.339C429.681 351.235 359.059 383.549 249.908 386.279C249.667 386.294 249.424 386.303 249.179 386.303C249.121 386.303 249.062 386.301 249.004 386.301C248.946 386.301 248.888 386.303 248.831 386.303C248.584 386.303 248.341 386.294 248.099 386.279C138.949 383.549 68.3279 351.235 36.2349 289.339C23.9951 265.733 20.3507 237.504 25.3017 204.652C30.0961 172.839 42.0708 142.229 61.2256 112.82C81.632 81.4891 107.089 56.583 137.598 38.1014C171.676 17.457 208.697 7.09033 248.659 7.00129C248.715 7.00043 248.773 7 248.831 7C248.873 7 248.916 7.00024 248.958 7.00074L249.004 7.00078L249.05 7.00074C249.093 7.00024 249.137 7 249.179 7C249.235 7 249.293 7.00043 249.348 7.00129Z" fill="white"/>
<path fill-rule="evenodd" clip-rule="evenodd" d="M105.277 204.897C68.648 153.108 149.233 99.5935 187.695 125.487C203.819 137.769 204.888 149.626 199.903 163.175C194.918 176.386 180.319 181.467 166.076 191.292C153.158 200.2 160.022 214.665 146.491 221.101C136.662 225.777 114.435 217.843 105.277 204.897ZM298.568 163.175C293.583 149.626 294.652 137.769 310.777 125.487C349.239 99.5935 429.823 153.108 393.194 204.897C384.037 217.843 361.808 225.777 351.98 221.101C338.45 214.665 345.315 200.2 332.397 191.292C318.152 181.467 303.552 176.386 298.568 163.175ZM174.765 148.812C165.946 142.948 147.473 155.067 155.87 166.795C164.267 178.524 185.681 156.632 174.765 148.812ZM342.478 166.795C334.082 178.524 312.668 156.632 323.584 148.812C332.401 142.948 350.876 155.067 342.478 166.795ZM194.538 259.802C193.586 258.62 193.07 257.172 193.07 255.683C193.07 251.94 196.258 248.907 200.193 248.907C202.492 248.907 204.652 249.965 205.988 251.745C208.084 254.427 210.688 256.533 213.801 258.063C217.042 259.657 220.504 260.454 224.186 260.454C227.868 260.454 231.33 259.657 234.571 258.063C237.631 256.559 240.199 254.499 242.276 251.882V240.811C239.738 240.139 237.283 239.091 235.006 237.665L232.053 235.817C225.4 231.651 219.936 225.983 216.149 219.319C212.529 212.949 215.551 205.001 222.618 202.311L226.881 200.688C241.216 195.23 257.206 195.23 271.541 200.688L275.804 202.311C282.871 205.001 285.893 212.949 282.273 219.319C278.486 225.983 273.021 231.651 266.369 235.817L263.416 237.665C261.251 239.02 258.925 240.035 256.52 240.71V253.281C256.52 253.418 256.516 253.555 256.508 253.691C258.261 255.467 260.296 256.925 262.613 258.063C265.854 259.657 269.315 260.454 272.997 260.454C276.68 260.454 280.141 259.657 283.382 258.063C286.496 256.533 289.1 254.427 291.194 251.745C292.531 249.965 294.69 248.907 296.991 248.907C300.925 248.907 304.114 251.94 304.114 255.683C304.114 257.172 303.598 258.62 302.646 259.802C299.238 264.173 294.997 267.605 289.922 270.101C284.63 272.703 278.988 274.004 272.997 274.004C267.006 274.004 261.365 272.703 256.073 270.101C253.336 268.755 250.843 267.138 248.591 265.248C246.34 267.138 243.847 268.755 241.111 270.101C235.819 272.703 230.178 274.004 224.186 274.004C218.196 274.004 212.555 272.703 207.262 270.101C202.186 267.605 197.945 264.173 194.538 259.802Z" fill="black"/>
</svg>
