<svg width="1373" height="310" viewBox="0 0 1373 310" fill="none" xmlns="http://www.w3.org/2000/svg">
<g clip-path="url(#clip0_1_51)">
<path fill-rule="evenodd" clip-rule="evenodd" d="M1217.4 47.749L1190.3 48.032L1189.15 50.563C1188.52 51.955 1188 53.567 1188 54.146C1188 54.724 1187.28 56.841 1186.4 58.849C1183.83 64.703 1183.31 66.065 1180.45 74.5C1178.96 78.9 1175.3 88.8 1172.31 96.5C1169.33 104.2 1166.39 111.85 1165.79 113.5C1164.56 116.874 1162.72 121.361 1160.5 126.401C1159.67 128.272 1159 130.077 1159 130.412C1159 130.747 1158.15 132.929 1157.12 135.261C1156.09 137.592 1154.48 141.75 1153.54 144.5C1152.61 147.25 1151.47 150.4 1151.03 151.5C1150.58 152.6 1149.45 155.75 1148.53 158.5C1147.6 161.25 1146.48 164.4 1146.04 165.5C1145.6 166.6 1144.45 169.525 1143.5 172C1142.54 174.475 1141.38 177.4 1140.91 178.5C1140.45 179.6 1137.55 187.025 1134.48 195C1131.41 202.975 1128.48 210.4 1127.97 211.5C1125.76 216.246 1119 234.502 1119 235.693C1119 236.412 1118.55 237 1118 237C1117.45 237 1117 237.66 1117 238.466C1117 239.272 1116.26 241.635 1115.36 243.716C1113.43 248.176 1114.14 246.342 1104.51 271.5C1094.45 297.766 1091 307.123 1091 308.154C1091 308.619 1109.57 309 1132.27 309H1173.54L1176.87 298.25C1178.34 293.505 1179.79 288.755 1181.24 284C1182.35 280.272 1182.46 279.949 1184.91 273L1186.5 268.5L1227.93 267.784C1259.75 267.235 1269.96 267.352 1271.93 268.291C1274.47 269.5 1283.83 293.845 1283.95 299.55C1283.98 300.678 1284.41 302.028 1284.91 302.55C1285.42 303.073 1285.98 304.625 1286.16 306L1286.5 308.5L1329.76 308.761C1372.82 309.02 1373.02 309.011 1372.01 307.011L1370 303.014C1369.45 301.921 1368.99 300.459 1368.99 299.764C1368.99 299.069 1368.4 297.375 1367.69 296C1366.98 294.625 1365.58 290.8 1364.57 287.5C1363.56 284.2 1362.35 281.073 1361.87 280.55C1361.39 280.028 1361 278.655 1361 277.5C1361 276.345 1360.62 274.972 1360.16 274.45C1359.7 273.927 1358.54 271.25 1357.57 268.5C1356.6 265.75 1355.18 262.082 1354.4 260.349C1353.63 258.616 1353 256.923 1353 256.588C1353 256.253 1352.16 254.071 1351.13 251.739C1349.88 248.846 1348.66 245.933 1347.5 243C1346.49 240.436 1345.44 237.886 1344.36 235.349C1343.61 233.616 1343 231.827 1343 231.374C1343 230.509 1339.81 221.738 1334.5 208C1333.66 205.831 1332.81 203.664 1331.96 201.5C1331.52 200.4 1329.28 194.325 1326.97 188C1324.67 181.675 1322.43 175.6 1322.01 174.5C1318.46 165.302 1317.66 163.252 1316.93 161.5C1316.47 160.4 1313.89 153.425 1311.19 146C1307.09 134.733 1296.93 107.875 1293.98 100.5C1293.54 99.4 1291.53 94 1289.52 88.5C1286.25 79.579 1284.56 75.106 1281.97 68.5C1281.54 67.4 1279.68 62.372 1277.84 57.326C1273.89 46.483 1274.73 46.885 1256.62 47.233C1249.95 47.362 1232.3 47.594 1217.4 47.749ZM0.245926 178.25L0.499924 308.5L40.7389 308.761L80.9769 309.023L81.2389 269.261L81.4999 229.5L98.9999 228.915C134.846 227.715 153.758 222.485 174 208.17C191.608 195.719 200.782 182.784 206.238 162.716C209.513 150.669 209.479 126.21 206.169 114.019C200.172 91.929 183.564 71.116 164.805 62.181C155.667 57.829 148.683 55 147.076 55C146.154 55 144.973 54.635 144.45 54.189C143.466 53.349 132.892 50.86 122.583 49.043C118.927 48.399 94.3789 48 58.3289 48H-0.00708008L0.245926 178.25ZM568.461 49.25C568.2 49.938 568.101 108.55 568.243 179.5L568.5 308.5L606.25 308.762L644 309.024V250.571C644 218.422 644.39 191.877 644.867 191.582C645.742 191.042 654 198.767 654 200.126C654 200.528 654.57 201.452 655.267 202.179C656.45 203.412 663.395 212.374 677.989 231.5C682.086 236.868 686.189 242.231 690.297 247.59C693.709 252.04 699.193 259.24 702.484 263.59C705.775 267.941 708.925 271.986 709.484 272.58C710.043 273.174 712.75 276.694 715.5 280.402C718.25 284.11 722.75 290.013 725.5 293.52C728.25 297.028 731.836 301.736 733.469 303.984C737.336 309.309 735.702 309.103 771.5 308.78L802.5 308.5L802.801 186.5C802.966 119.4 802.813 60.782 802.46 56.238L801.818 47.976L763.659 48.238L725.5 48.5V106.196C725.5 146.619 725.173 164.22 724.406 164.989C723.242 166.159 719.821 162.444 711.139 150.581C708.691 147.237 706.391 144.275 706.028 144C705.665 143.725 703.857 141.25 702.01 138.5C699.206 134.307 696.208 130.248 693.025 126.335C692.505 125.694 687.899 119.671 682.79 112.952C677.68 106.232 671.7 98.382 669.5 95.507C667.3 92.632 662.164 85.829 658.086 80.39C654.009 74.95 650.394 70.275 650.054 70C649.714 69.725 645.934 64.662 641.654 58.75L633.871 48H601.404C576.351 48 568.829 48.285 568.461 49.25ZM847.667 48.667C846.801 49.532 846.796 267.035 847.66 290.91L848.321 309.14L900.91 308.616C953.909 308.088 967.678 307.396 980.5 304.619C984.35 303.785 988.85 302.821 990.5 302.476C992.15 302.131 994.4 301.487 995.5 301.043C996.6 300.6 1000.87 298.981 1005 297.446C1014.07 294.069 1030.55 285.58 1033 283.023C1033.27 282.735 1035.75 280.705 1038.5 278.511C1057.7 263.19 1076.07 236.078 1081.85 214.5C1082.45 212.3 1083.72 207.8 1084.69 204.5C1087.44 195.128 1087.16 156.477 1084.26 146C1079.98 130.517 1071.08 109.929 1066.97 106C1066.69 105.725 1064.31 102.575 1061.69 99C1047.2 79.247 1026.78 64.536 1003 56.735C990.184 52.531 980.23 50.34 968.211 49.079C957.053 47.909 848.795 47.538 847.667 48.667ZM82.0929 115.825C80.6509 118.52 80.5999 161.383 82.0349 164.066C83.8079 167.379 107.148 166.929 113.68 163.455C133.311 153.017 133.967 126.54 114.847 116.372C109.34 113.443 83.5979 113.014 82.0929 115.825ZM926.878 123.75C925.358 127.649 926.783 232.743 928.369 233.74C932.49 236.33 970.73 233.864 972.568 230.89C972.871 230.4 973.879 229.996 974.809 229.99C975.739 229.985 979.282 228.216 982.681 226.059C1009.18 209.246 1012.15 157.72 987.983 134.142C977.012 123.439 968.829 121 943.899 121H927.95L926.878 123.75ZM1230.2 132.26C1229.62 132.954 1227.51 138.691 1225.5 145.01C1223.49 151.33 1221.49 157.4 1221.05 158.5C1220.61 159.6 1219.49 163.2 1218.57 166.5C1217.64 169.8 1216.5 173.4 1216.01 174.5C1215.53 175.6 1214.4 178.975 1213.5 182C1212.59 185.025 1211.45 188.4 1210.95 189.5C1210.45 190.6 1208.89 195.544 1207.48 200.487C1205.08 208.93 1205.03 209.55 1206.65 210.737C1208.58 212.147 1244.29 212.475 1251.5 211.148C1256.36 210.253 1256.36 210.081 1251.58 194.5C1249.73 188.45 1247.98 182.6 1247.7 181.5C1246.6 177.175 1234.13 136.336 1233.12 133.75C1231.9 130.632 1231.65 130.505 1230.2 132.26Z" fill="#060606"/>
<path fill-rule="evenodd" clip-rule="evenodd" d="M314.148 24.4428C316.454 22.9765 318.782 21.5927 321.133 20.2914C312.513 9.37123 299.367 3 285.454 3C260.351 3 240 23.3507 240 48.4545C240 63.6348 247.578 77.8131 260.2 86.2473C262.63 81.257 265.361 76.3194 268.392 71.4345C280.618 51.73 295.87 36.0661 314.148 24.4428ZM493.594 71.4345C496.613 76.2995 499.334 81.2168 501.757 86.1864C514.326 77.7434 521.866 63.596 521.866 48.4545C521.866 23.3507 501.515 3 476.412 3C462.52 3 449.391 9.35233 440.77 20.2449C443.149 21.5598 445.505 22.9591 447.838 24.4428C466.116 36.0661 481.368 51.73 493.594 71.4345ZM293.632 138.733C271.492 105.829 320.199 71.8289 343.446 88.2806C353.192 96.0838 353.838 103.617 350.825 112.225C347.812 120.619 338.988 123.847 330.379 130.089C322.571 135.749 326.72 144.939 318.542 149.028C312.601 151.999 299.166 146.958 293.632 138.733ZM467.654 138.733C489.793 105.829 441.086 71.8289 417.839 88.2806C408.093 96.0838 407.447 103.617 410.46 112.225C413.473 120.619 422.297 123.847 430.906 130.089C438.714 135.749 434.565 144.939 442.743 149.028C448.684 151.999 462.119 146.958 467.654 138.733ZM324.211 114.525C319.135 107.074 330.301 99.3742 335.631 103.1C342.229 108.068 329.286 121.977 324.211 114.525ZM437 114.525C442.076 107.074 430.909 99.3742 425.58 103.1C418.982 108.068 431.925 121.977 437 114.525ZM364.554 137.09C360.283 138.799 358.456 143.849 360.644 147.896C362.933 152.13 366.236 155.731 370.257 158.378L372.042 159.552C373.418 160.458 374.902 161.124 376.436 161.551V168.585C375.181 170.248 373.628 171.557 371.779 172.512C369.82 173.525 367.727 174.031 365.502 174.031C363.277 174.031 361.184 173.525 359.225 172.512C357.344 171.54 355.77 170.202 354.503 168.498C353.695 167.367 352.39 166.695 351 166.695C348.622 166.695 346.695 168.622 346.695 171C346.695 171.946 347.007 172.866 347.582 173.617C349.641 176.394 352.205 178.575 355.273 180.16C358.472 181.813 361.881 182.64 365.502 182.64C369.123 182.64 372.533 181.813 375.732 180.16C377.385 179.305 378.892 178.278 380.253 177.077C381.614 178.278 383.121 179.305 384.775 180.16C387.974 181.813 391.383 182.64 395.004 182.64C398.625 182.64 402.035 181.813 405.234 180.16C408.301 178.575 410.865 176.394 412.925 173.617C413.5 172.866 413.812 171.946 413.812 171C413.812 168.622 411.884 166.695 409.507 166.695C408.116 166.695 406.811 167.367 406.003 168.498C404.737 170.202 403.163 171.54 401.281 172.512C399.322 173.525 397.23 174.031 395.004 174.031C392.779 174.031 390.687 173.525 388.728 172.512C387.327 171.789 386.097 170.863 385.038 169.734C385.043 169.648 385.045 169.561 385.045 169.474C385.045 169.45 385.045 169.426 385.045 169.402V161.487C386.499 161.058 387.905 160.413 389.213 159.552L390.998 158.378C395.019 155.731 398.322 152.13 400.611 147.896C402.799 143.849 400.972 138.799 396.701 137.09L394.124 136.059C385.46 132.591 375.795 132.591 367.131 136.059L364.554 137.09ZM502.458 185C484.499 214.252 451.641 231.494 403.882 236.726C425.294 259.338 436 282.521 436 306.274C436 308.774 453 308.774 464.5 308.774H519C519.128 308.774 519.266 308.775 519.411 308.776C522.67 308.797 530 308.846 530 299.274C530 289.274 523.5 198.774 505 186.274C504.241 185.761 503.393 185.336 502.458 185ZM355.045 236.804C307.035 231.68 273.989 214.494 255.907 185.247C255.22 185.537 254.584 185.879 254 186.274C235.5 198.774 229 289.274 229 299.274C229 308.846 236.33 308.797 239.589 308.776C239.734 308.775 239.872 308.774 240 308.774H294.5C306 308.774 323 308.774 323 306.274C323 282.547 333.682 259.391 355.045 236.804Z" fill="black"/>
<path fill-rule="evenodd" clip-rule="evenodd" d="M379.711 0.000816345C403.865 0.0573871 426.241 6.64382 446.839 19.7601C465.278 31.5024 480.665 47.3264 492.999 67.2322C504.577 85.9171 511.815 105.366 514.712 125.578C517.705 146.449 515.502 164.384 508.104 179.383C488.707 218.708 446.022 239.239 380.049 240.974C379.903 240.983 379.756 240.989 379.608 240.989C379.573 240.989 379.538 240.988 379.503 240.988C379.467 240.988 379.432 240.989 379.397 240.989C379.249 240.989 379.102 240.983 378.956 240.974C312.984 239.239 270.299 218.708 250.901 179.383C243.503 164.384 241.3 146.449 244.293 125.578C247.191 105.366 254.428 85.9171 266.006 67.2322C278.34 47.3264 293.727 31.5024 312.166 19.7601C332.764 6.64382 355.14 0.0573871 379.294 0.000816345C379.328 0.000271881 379.363 1.19809e-10 379.397 1.19809e-10C379.423 -1.58826e-07 379.449 0.000157833 379.475 0.000473023L379.503 0.000492096L379.53 0.000473023C379.556 0.000157833 379.582 -1.58826e-07 379.608 1.19809e-10C379.642 1.19809e-10 379.677 0.000271881 379.711 0.000816345Z" fill="white"/>
<path fill-rule="evenodd" clip-rule="evenodd" d="M292.632 125.733C270.492 92.8291 319.199 58.829 342.446 75.2806C352.192 83.0839 352.838 90.6171 349.825 99.2251C346.812 107.619 337.988 110.847 329.379 117.089C321.571 122.749 325.72 131.939 317.542 136.028C311.601 138.999 298.166 133.958 292.632 125.733ZM409.46 99.2251C406.447 90.6171 407.093 83.0839 416.839 75.2806C440.086 58.829 488.793 92.8291 466.654 125.733C461.119 133.958 447.684 138.999 441.743 136.028C433.565 131.939 437.714 122.749 429.906 117.089C421.297 110.847 412.473 107.619 409.46 99.2251ZM334.631 90.1001C329.301 86.3743 318.135 94.0741 323.211 101.525C328.286 108.977 341.229 95.0681 334.631 90.1001ZM436 101.525C430.925 108.977 417.982 95.0681 424.58 90.1001C429.909 86.3743 441.076 94.0741 436 101.525ZM346.582 160.617C346.007 159.866 345.695 158.946 345.695 158C345.695 155.622 347.622 153.695 350 153.695C351.39 153.695 352.695 154.367 353.503 155.498C354.77 157.202 356.344 158.54 358.225 159.512C360.184 160.525 362.277 161.031 364.502 161.031C366.727 161.031 368.82 160.525 370.779 159.512C372.628 158.557 374.181 157.248 375.436 155.585V148.551C373.902 148.124 372.418 147.458 371.042 146.552L369.257 145.378C365.236 142.731 361.933 139.13 359.644 134.896C357.456 130.849 359.283 125.799 363.554 124.09L366.131 123.059C374.795 119.591 384.46 119.591 393.124 123.059L395.701 124.09C399.972 125.799 401.799 130.849 399.611 134.896C397.322 139.13 394.019 142.731 389.998 145.378L388.213 146.552C386.905 147.413 385.499 148.058 384.045 148.487V156.474C384.045 156.561 384.043 156.648 384.038 156.734C385.097 157.863 386.327 158.789 387.728 159.512C389.687 160.525 391.779 161.031 394.004 161.031C396.23 161.031 398.322 160.525 400.281 159.512C402.163 158.54 403.737 157.202 405.003 155.498C405.811 154.367 407.116 153.695 408.507 153.695C410.884 153.695 412.812 155.622 412.812 158C412.812 158.946 412.5 159.866 411.925 160.617C409.865 163.394 407.301 165.575 404.234 167.16C401.035 168.813 397.625 169.64 394.004 169.64C390.383 169.64 386.974 168.813 383.775 167.16C382.121 166.305 380.614 165.278 379.253 164.077C377.892 165.278 376.385 166.305 374.732 167.16C371.533 168.813 368.123 169.64 364.502 169.64C360.881 169.64 357.472 168.813 354.273 167.16C351.205 165.575 348.641 163.394 346.582 160.617Z" fill="black"/>
</g>
<defs>
<clipPath id="clip0_1_51">
<rect width="1373" height="310" fill="white"/>
</clipPath>
</defs>
</svg>
